<mxfile host="app.diagrams.net" modified="2024-11-05T02:45:56.121Z" agent="Mozilla/5.0 (Windows NT 10.0; Win64; x64; rv:132.0) Gecko/20100101 Firefox/132.0" version="24.3.1" etag="6DdXmAEaydAvIVRL23CB" type="github">
  <diagram name="ページ1" id="yeINOcD4y2SPSZRqBa7i">
    <mxGraphModel>
      <root>
        <mxCell id="0" />
        <mxCell id="1" parent="0" />
      </root>
    </mxGraphModel>
  </diagram>
</mxfile>
